<?xml version="1.0" encoding="utf-8"?>
<!-- Generator: Adobe Illustrator 24.1.1, SVG Export Plug-In . SVG Version: 6.00 Build 0)  -->
<svg version="1.1" id="Layer_1" xmlns="http://www.w3.org/2000/svg" xmlns:xlink="http://www.w3.org/1999/xlink" x="0px" y="0px"
	 viewBox="0 0 400 300" style="enable-background:new 0 0 400 300;" xml:space="preserve">
<style type="text/css">
	.st0{fill:url(#SVGID_1_);}
	.st1{fill:url(#SVGID_2_);}
	.st2{fill:url(#SVGID_3_);}
	.st3{fill:url(#SVGID_4_);}
	.st4{fill:url(#SVGID_5_);}
	.st5{clip-path:url(#SVGID_7_);fill:#FFFFFF;}
	.st6{clip-path:url(#SVGID_9_);fill:#F2F2F2;}
	.st7{clip-path:url(#SVGID_11_);fill:#FFFFFF;}
	.st8{clip-path:url(#SVGID_13_);fill:#F2F2F2;}
	.st9{clip-path:url(#SVGID_15_);fill:#FFFFFF;}
</style>
<g>
	
		<linearGradient id="SVGID_1_" gradientUnits="userSpaceOnUse" x1="-154.0894" y1="1142.3419" x2="-154.0894" y2="1036.5092" gradientTransform="matrix(1.98 0 0 1.98 504.94 -2012.3901)">
		<stop  offset="0" style="stop-color:#2075BC"/>
		<stop  offset="1" style="stop-color:#29AAE1"/>
	</linearGradient>
	<polygon class="st0" points="259.1,40.3 259.1,39.9 259.1,40.3 258.7,39.9 258.7,40.3 199.8,63.6 140.6,40.3 140.6,39.9 
		140.2,40.3 140.2,39.9 140.2,40.3 81,64 81,249.4 140.2,226.9 199.8,249.4 199.8,249.4 199.8,249.4 199.8,249.4 199.8,249.4 
		259.1,226.9 318.7,249.4 318.7,64 	"/>
	<g>
		
			<linearGradient id="SVGID_2_" gradientUnits="userSpaceOnUse" x1="-199.0596" y1="1142.3419" x2="-199.0596" y2="1036.5092" gradientTransform="matrix(1.98 0 0 1.98 504.94 -2012.3901)">
			<stop  offset="0" style="stop-color:#0A6AA8"/>
			<stop  offset="1" style="stop-color:#1699C8"/>
		</linearGradient>
		<polygon class="st1" points="81,64 81,249.4 140.6,226.9 140.6,39.9 		"/>
		
			<linearGradient id="SVGID_3_" gradientUnits="userSpaceOnUse" x1="-169.1427" y1="1142.3419" x2="-169.1427" y2="1036.5092" gradientTransform="matrix(1.98 0 0 1.98 504.94 -2012.3901)">
			<stop  offset="0" style="stop-color:#2075BC"/>
			<stop  offset="1" style="stop-color:#29AAE1"/>
		</linearGradient>
		<polygon class="st2" points="199.8,64 199.8,249.4 140.2,226.9 140.2,39.9 		"/>
		
			<linearGradient id="SVGID_4_" gradientUnits="userSpaceOnUse" x1="-139.1331" y1="1142.3419" x2="-139.1331" y2="1036.5092" gradientTransform="matrix(1.98 0 0 1.98 504.94 -2012.3901)">
			<stop  offset="0" style="stop-color:#0A6AA8"/>
			<stop  offset="1" style="stop-color:#1699C8"/>
		</linearGradient>
		<polygon class="st3" points="199.8,64 199.8,249.4 259.1,226.9 259.1,39.9 		"/>
		
			<linearGradient id="SVGID_5_" gradientUnits="userSpaceOnUse" x1="-109.2141" y1="1142.3419" x2="-109.2141" y2="1036.5092" gradientTransform="matrix(1.98 0 0 1.98 504.94 -2012.3901)">
			<stop  offset="0" style="stop-color:#2075BC"/>
			<stop  offset="1" style="stop-color:#29AAE1"/>
		</linearGradient>
		<polygon class="st4" points="318.7,64 318.7,249.4 258.7,226.9 258.7,39.9 		"/>
	</g>
	<g>
		<g>
			<g>
				<g>
					<g>
						<defs>
							<path id="SVGID_6_" d="M284.6,148.7c-2.2-6.3-1.5-17-2.6-18.5c-7-9.6-32.2-11.1-43.7-23.7c1.9-6.3-2.2-11.1-6.3-15.2
								c-6.3-4.4-14.8-2.6-21.5-0.7c-7.4-1.5-14.4-4.4-21.8-6.3c-16.3-1.9-32.6,9.6-32.6,9.6c-11.8,7.4-30,23-38.9,31.8
								c2.2,0.4,4.4-1.5,7-1.5l17-4.4c-7,5.9-21.8,15.9-26.3,24.1c5.2-1.9,16.3-7.8,21.8-8.5c-4.8,4.1-14.8,12.2-18.1,17.4
								c0.4,0.4,0,0.7,0,1.1c4.1-2.2,14.1-8.1,18.9-8.5c-4.8,4.8-13.3,14.4-15.2,20.7c4.1-2.6,14.4-8.1,18.9-9.6
								c-1.1,2.6-3.3,4.4-4.8,6.7c-2.2,3.3-7,7.4-7,11.5c3.7-3.3,8.1-6.3,12.6-8.5c-1.9,4.1-5.6,7.4-6.7,12.6c3-3,8.5-4.4,12.2-5.6
								l-0.4,0.4c-0.4,0.4-4.4,3.3-7.4,6.7c2.6,0,0.7-0.4,4.1,0.4h1.9c-0.7,0.4-1.9,1.1-3,1.5l0,0c-1.5,0.7-3.3,1.9-4.8,2.6
								c7,8.9,15.5,16.3,25.5,21.1c13,6.3,27,8.5,41.5,6.7c0-0.7-0.4-1.5-0.7-2.6l0,0l0,0c-0.4-1.1-0.7-1.9-0.7-3l0,0l0,0
								c4.8-8.9,2.2-24.4,14.8-30.7c8.5-4.4,9.3-6.7,18.9-4.8c5.2,1.1,16.7,4.8,21.8,3.7c4.8-2.6,7.4-4.1,11.9-7
								c5.2,1.1,7,0.4,8.9-2.2c-1.9,2.6,3.3-9.6,5.6-14.1L284.6,148.7z"/>
						</defs>
						<clipPath id="SVGID_7_">
							<use xlink:href="#SVGID_6_"  style="overflow:visible;"/>
						</clipPath>
						<path class="st5" d="M199.8,74.7c60.9,0,110.3,33.5,110.3,74.8c0,41.3-49.4,74.8-110.3,74.8c-60.9,0-110.3-33.5-110.3-74.8
							C89.5,108.2,138.9,74.7,199.8,74.7z"/>
					</g>
				</g>
			</g>
		</g>
		<g>
			<g>
				<g>
					<g>
						<defs>
							<path id="SVGID_8_" d="M284.6,148.7c-2.2-6.3-1.5-17-2.6-18.5c-7-9.6-32.2-11.1-43.7-23.7c1.9-6.3-2.2-11.1-6.3-15.2
								c-6.3-4.4-14.8-2.6-21.5-0.7c-7.4-1.5-14.4-4.4-21.8-6.3c-16.3-1.9-32.6,9.6-32.6,9.6c-11.8,7.4-30,23-38.9,31.8
								c2.2,0.4,4.4-1.5,7-1.5l17-4.4c-7,5.9-21.8,15.9-26.3,24.1c5.2-1.9,16.3-7.8,21.8-8.5c-4.8,4.1-14.8,12.2-18.1,17.4
								c0.4,0.4,0,0.7,0,1.1c4.1-2.2,14.1-8.1,18.9-8.5c-4.8,4.8-13.3,14.4-15.2,20.7c4.1-2.6,14.4-8.1,18.9-9.6
								c-1.1,2.6-3.3,4.4-4.8,6.7c-2.2,3.3-7,7.4-7,11.5c3.7-3.3,8.1-6.3,12.6-8.5c-1.9,4.1-5.6,7.4-6.7,12.6c3-3,8.5-4.4,12.2-5.6
								l-0.4,0.4c-0.4,0.4-4.4,3.3-7.4,6.7c2.6,0,0.7-0.4,4.1,0.4h1.9c-0.7,0.4-1.9,1.1-3,1.5l0,0c-1.5,0.7-3.3,1.9-4.8,2.6
								c7,8.9,15.5,16.3,25.5,21.1c13,6.3,27,8.5,41.5,6.7c0-0.7-0.4-1.5-0.7-2.6l0,0l0,0c-0.4-1.1-0.7-1.9-0.7-3l0,0l0,0
								c4.8-8.9,2.2-24.4,14.8-30.7c8.5-4.4,9.3-6.7,18.9-4.8c5.2,1.1,16.7,4.8,21.8,3.7c4.8-2.6,7.4-4.1,11.9-7
								c5.2,1.1,7,0.4,8.9-2.2c-1.9,2.6,3.3-9.6,5.6-14.1L284.6,148.7z"/>
						</defs>
						<clipPath id="SVGID_9_">
							<use xlink:href="#SVGID_8_"  style="overflow:visible;"/>
						</clipPath>
						<polygon class="st6" points="82.5,67.3 82.5,255 141.3,231.7 141.3,43.6 						"/>
					</g>
				</g>
			</g>
		</g>
		<g>
			<g>
				<g>
					<g>
						<defs>
							<path id="SVGID_10_" d="M284.6,148.7c-2.2-6.3-1.5-17-2.6-18.5c-7-9.6-32.2-11.1-43.7-23.7c1.9-6.3-2.2-11.1-6.3-15.2
								c-6.3-4.4-14.8-2.6-21.5-0.7c-7.4-1.5-14.4-4.4-21.8-6.3c-16.3-1.9-32.6,9.6-32.6,9.6c-11.8,7.4-30,23-38.9,31.8
								c2.2,0.4,4.4-1.5,7-1.5l17-4.4c-7,5.9-21.8,15.9-26.3,24.1c5.2-1.9,16.3-7.8,21.8-8.5c-4.8,4.1-14.8,12.2-18.1,17.4
								c0.4,0.4,0,0.7,0,1.1c4.1-2.2,14.1-8.1,18.9-8.5c-4.8,4.8-13.3,14.4-15.2,20.7c4.1-2.6,14.4-8.1,18.9-9.6
								c-1.1,2.6-3.3,4.4-4.8,6.7c-2.2,3.3-7,7.4-7,11.5c3.7-3.3,8.1-6.3,12.6-8.5c-1.9,4.1-5.6,7.4-6.7,12.6c3-3,8.5-4.4,12.2-5.6
								l-0.4,0.4c-0.4,0.4-4.4,3.3-7.4,6.7c2.6,0,0.7-0.4,4.1,0.4h1.9c-0.7,0.4-1.9,1.1-3,1.5l0,0c-1.5,0.7-3.3,1.9-4.8,2.6
								c7,8.9,15.5,16.3,25.5,21.1c13,6.3,27,8.5,41.5,6.7c0-0.7-0.4-1.5-0.7-2.6l0,0l0,0c-0.4-1.1-0.7-1.9-0.7-3l0,0l0,0
								c4.8-8.9,2.2-24.4,14.8-30.7c8.5-4.4,9.3-6.7,18.9-4.8c5.2,1.1,16.7,4.8,21.8,3.7c4.8-2.6,7.4-4.1,11.9-7
								c5.2,1.1,7,0.4,8.9-2.2c-1.9,2.6,3.3-9.6,5.6-14.1L284.6,148.7z"/>
						</defs>
						<clipPath id="SVGID_11_">
							<use xlink:href="#SVGID_10_"  style="overflow:visible;"/>
						</clipPath>
						<polygon class="st7" points="200.2,67.3 200.2,255 141,231.7 141,43.6 						"/>
					</g>
				</g>
			</g>
		</g>
		<g>
			<g>
				<g>
					<g>
						<defs>
							<path id="SVGID_12_" d="M284.6,148.7c-2.2-6.3-1.5-17-2.6-18.5c-7-9.6-32.2-11.1-43.7-23.7c1.9-6.3-2.2-11.1-6.3-15.2
								c-6.3-4.4-14.8-2.6-21.5-0.7c-7.4-1.5-14.4-4.4-21.8-6.3c-16.3-1.9-32.6,9.6-32.6,9.6c-11.8,7.4-30,23-38.9,31.8
								c2.2,0.4,4.4-1.5,7-1.5l17-4.4c-7,5.9-21.8,15.9-26.3,24.1c5.2-1.9,16.3-7.8,21.8-8.5c-4.8,4.1-14.8,12.2-18.1,17.4
								c0.4,0.4,0,0.7,0,1.1c4.1-2.2,14.1-8.1,18.9-8.5c-4.8,4.8-13.3,14.4-15.2,20.7c4.1-2.6,14.4-8.1,18.9-9.6
								c-1.1,2.6-3.3,4.4-4.8,6.7c-2.2,3.3-7,7.4-7,11.5c3.7-3.3,8.1-6.3,12.6-8.5c-1.9,4.1-5.6,7.4-6.7,12.6c3-3,8.5-4.4,12.2-5.6
								l-0.4,0.4c-0.4,0.4-4.4,3.3-7.4,6.7c2.6,0,0.7-0.4,4.1,0.4h1.9c-0.7,0.4-1.9,1.1-3,1.5l0,0c-1.5,0.7-3.3,1.9-4.8,2.6
								c7,8.9,15.5,16.3,25.5,21.1c13,6.3,27,8.5,41.5,6.7c0-0.7-0.4-1.5-0.7-2.6l0,0l0,0c-0.4-1.1-0.7-1.9-0.7-3l0,0l0,0
								c4.8-8.9,2.2-24.4,14.8-30.7c8.5-4.4,9.3-6.7,18.9-4.8c5.2,1.1,16.7,4.8,21.8,3.7c4.8-2.6,7.4-4.1,11.9-7
								c5.2,1.1,7,0.4,8.9-2.2c-1.9,2.6,3.3-9.6,5.6-14.1L284.6,148.7z"/>
						</defs>
						<clipPath id="SVGID_13_">
							<use xlink:href="#SVGID_12_"  style="overflow:visible;"/>
						</clipPath>
						<polygon class="st8" points="200.2,67.3 200.2,255 258.7,231.7 258.7,43.6 						"/>
					</g>
				</g>
			</g>
		</g>
		<g>
			<g>
				<g>
					<g>
						<defs>
							<path id="SVGID_14_" d="M284.6,148.7c-2.2-6.3-1.5-17-2.6-18.5c-7-9.6-32.2-11.1-43.7-23.7c1.9-6.3-2.2-11.1-6.3-15.2
								c-6.3-4.4-14.8-2.6-21.5-0.7c-7.4-1.5-14.4-4.4-21.8-6.3c-16.3-1.9-32.6,9.6-32.6,9.6c-11.8,7.4-30,23-38.9,31.8
								c2.2,0.4,4.4-1.5,7-1.5l17-4.4c-7,5.9-21.8,15.9-26.3,24.1c5.2-1.9,16.3-7.8,21.8-8.5c-4.8,4.1-14.8,12.2-18.1,17.4
								c0.4,0.4,0,0.7,0,1.1c4.1-2.2,14.1-8.1,18.9-8.5c-4.8,4.8-13.3,14.4-15.2,20.7c4.1-2.6,14.4-8.1,18.9-9.6
								c-1.1,2.6-3.3,4.4-4.8,6.7c-2.2,3.3-7,7.4-7,11.5c3.7-3.3,8.1-6.3,12.6-8.5c-1.9,4.1-5.6,7.4-6.7,12.6c3-3,8.5-4.4,12.2-5.6
								l-0.4,0.4c-0.4,0.4-4.4,3.3-7.4,6.7c2.6,0,0.7-0.4,4.1,0.4h1.9c-0.7,0.4-1.9,1.1-3,1.5l0,0c-1.5,0.7-3.3,1.9-4.8,2.6
								c7,8.9,15.5,16.3,25.5,21.1c13,6.3,27,8.5,41.5,6.7c0-0.7-0.4-1.5-0.7-2.6l0,0l0,0c-0.4-1.1-0.7-1.9-0.7-3l0,0l0,0
								c4.8-8.9,2.2-24.4,14.8-30.7c8.5-4.4,9.3-6.7,18.9-4.8c5.2,1.1,16.7,4.8,21.8,3.7c4.8-2.6,7.4-4.1,11.9-7
								c5.2,1.1,7,0.4,8.9-2.2c-1.9,2.6,3.3-9.6,5.6-14.1L284.6,148.7z"/>
						</defs>
						<clipPath id="SVGID_15_">
							<use xlink:href="#SVGID_14_"  style="overflow:visible;"/>
						</clipPath>
						<polygon class="st9" points="317.9,67.3 317.9,255 258.7,231.7 258.7,43.6 						"/>
					</g>
				</g>
			</g>
		</g>
	</g>
</g>
</svg>
